#!OML:ASF I:\Actors\actors\Patient Classification 2\Patient 1\Session 1\actor1.ASF
:FULLY-SPECIFIED
:DEGREES
259
root -0.800435 18.9361 4.0228 16.0689 -5.20707 -2.02137
lowerback 39.2083 -2.63732 -11.0701
upperback 8.59731 -8.42641 -7.06479
thorax -8.96183 -3.64611 1.45088
lowerneck -20.1339 8.57662 5.38492
upperneck 25.0479 10.8764 -2.28752
head 11.996 5.00196 0.0234898
rclavicle 2.8625e-014 0
rhumerus 34.7653 29.3797 -53.0457
rradius 88.9213
rwrist 15.6907
rhand -24.3068 -50.3204
rfingers 7.12502
rthumb 2.18103 279.711
lclavicle 2.8625e-014 0
lhumerus 20.9062 2.0963 108.873
lradius 68.0218
lwrist 92.4576
lhand -29.6977 -17.7069
lfingers 7.12502
lthumb -3.0255 12.2514
rfemur 0 0 0
rtibia 0
rfoot 0 0
rtoes 0
lfemur -27.3787 5.15779 -11.4189
ltibia 23.1315
lfoot -12.8523 10.6039
ltoes -55.7554
260
root -0.792813 18.9401 4.02546 16.5278 -5.13821 -2.07771
lowerback 39.3495 -2.55679 -10.8811
upperback 8.63529 -8.26506 -7.05146
thorax -9.00332 -3.57043 1.3163
lowerneck -19.9573 8.43943 5.17923
upperneck 24.7653 10.6792 -2.05583
head 11.8147 4.93587 0.0923778
rclavicle -6.04305e-014 -4.77083e-014
rhumerus 34.0603 29.8866 -52.2312
rradius 91.7329
rwrist 14.3863
rhand -30.5039 -51.2155
rfingers 7.12502
rthumb -3.80407 278.839
lclavicle -6.04305e-014 -4.77083e-014
lhumerus 19.2395 0.743452 107.543
lradius 71.1176
lwrist 93.9313
lhand -27.9955 -17.2889
lfingers 7.12502
lthumb -1.38155 12.6864
rfemur 0 0 0
rtibia 0
rfoot 0 0
rtoes 0
lfemur -27.8677 5.05894 -11.3663
ltibia 23.0822
lfoot -12.7844 10.6777
ltoes -55.8816
261
root -0.786457 18.9433 4.03512 16.9707 -5.02331 -2.16608
lowerback 39.6119 -2.51615 -10.7443
upperback 8.62483 -8.19317 -7.02797
thorax -9.12389 -3.52707 1.25869
lowerneck -19.7583 8.34721 5.09019
upperneck 24.4573 10.5268 -1.88779
head 11.635 4.89203 0.126294
rclavicle -6.36111e-014 -2.22639e-014
rhumerus 33.0964 29.2806 -52.1058
rradius 95.1569
rwrist 15.7538
rhand -29.5577 -50.9938
rfingers 7.12502
rthumb -2.89031 279.046
lclavicle -6.36111e-014 -2.22639e-014
lhumerus 17.5481 -0.228297 106.997
lradius 74.6499
lwrist 93.3349
lhand -24.5431 -16.4787
lfingers 7.12502
lthumb 1.95282 13.4921
rfemur 0 0 0
rtibia 0
rfoot 0 0
rtoes 0
lfemur -28.3445 4.93047 -11.2609
ltibia 23.0751
lfoot -12.7771 10.6945
ltoes -55.8838
262
root -0.781002 18.9457 4.04428 17.3428 -4.91825 -2.23149
lowerback 39.9029 -2.53751 -10.7508
upperback 8.64727 -8.25374 -7.03121
thorax -9.19033 -3.54511 1.29124
lowerneck -19.7068 8.33639 4.9605
upperneck 24.1494 10.4876 -1.68969
head 11.4849 4.89559 0.202185
rclavicle 6.04305e-014 3.65764e-014
rhumerus 32.5563 28.621 -52.0121
rradius 98.0913
rwrist 15.7467
rhand -29.5518 -50.871
rfingers 7.12502
rthumb -2.88466 279.169
lclavicle 6.04305e-014 3.65764e-014
lhumerus 16.5291 -0.695552 106.844
lradius 77.0772
lwrist 91.2893
lhand -20.8968 -16.2366
lfingers 7.12502
lthumb 5.47403 13.6727
rfemur 0 0 0
rtibia 0
rfoot 0 0
rtoes 0
lfemur -28.7777 4.8438 -11.1856
ltibia 23.128
lfoot -12.7424 10.6366
ltoes -55.728
263
root -0.774489 18.9465 4.05074 17.6704 -4.79024 -2.32055
lowerback 40.0658 -2.71461 -10.7608
upperback 8.72287 -8.48432 -7.07314
thorax -9.15 -3.64909 1.34294
lowerneck -19.9369 8.39208 4.52115
upperneck 24.1059 10.5707 -1.25002
head 11.4581 4.94673 0.449724
rclavicle 1.08139e-013 9.54166e-014
rhumerus 32.6796 27.7562 -52.2619
rradius 99.4011
rwrist 14.9841
rhand -31.5517 -49.3516
rfingers 7.12502
rthumb -4.81582 280.723
lclavicle 1.08139e-013 9.54166e-014
lhumerus 16.6785 -0.00146585 107.461
lradius 77.6817
lwrist 90.0381
lhand -17.5298 -17.2371
lfingers 7.12502
lthumb 8.72413 12.5626
rfemur 0 0 0
rtibia 0
rfoot 0 0
rtoes 0
lfemur -29.2028 4.8214 -11.1134
ltibia 23.2275
lfoot -12.6666 10.5871
ltoes -55.695
264
root -0.768083 18.9451 4.05397 17.8886 -4.62894 -2.4488
lowerback 40.1887 -2.84386 -10.6227
upperback 8.69989 -8.62611 -7.23463
thorax -9.25858 -3.70248 1.16906
lowerneck -19.6486 8.36229 4.66882
upperneck 24.1626 10.459 -1.12353
head 11.4226 4.9282 0.442487
rclavicle -5.08889e-014 1.59028e-015
rhumerus 32.5492 26.373 -53.2834
rradius 98.0174
rwrist 15.7568
rhand -31.9246 -49.126
rfingers 7.12502
rthumb -5.17588 280.957
lclavicle -5.08889e-014 1.59028e-015
lhumerus 17.4795 1.06146 108.277
lradius 76.3817
lwrist 91.1581
lhand -21.5952 -17.5316
lfingers 7.12502
lthumb 4.79963 12.3941
rfemur 0 0 0
rtibia 0
rfoot 0 0
rtoes 0
lfemur -29.5315 4.8689 -11.0223
ltibia 23.3402
lfoot -12.6137 10.5376
ltoes -55.7763
265
root -0.762503 18.9438 4.0529 17.9038 -4.44709 -2.55573
lowerback 40.5448 -2.8398 -10.8135
upperback 8.62788 -8.73343 -7.11044
thorax -9.39718 -3.73332 1.45083
lowerneck -19.648 8.36208 4.6606
upperneck 24.4532 10.5252 -1.32406
head 11.5475 4.92356 0.389401
rclavicle 6.04305e-014 1.74931e-014
rhumerus 33.2617 25.8602 -53.138
rradius 95.7706
rwrist 15.3236
rhand -28.7455 -49.6293
rfingers 7.12502
rthumb -2.10593 280.401
lclavicle 6.04305e-014 1.74931e-014
lhumerus 19.1571 3.11355 109.988
lradius 73.8072
lwrist 92.2971
lhand -25.3475 -17.8119
lfingers 7.12502
lthumb 1.17591 12.1646
rfemur 0 0 0
rtibia 0
rfoot 0 0
rtoes 0
lfemur -29.6412 4.82169 -10.9124
ltibia 23.4361
lfoot -12.6361 10.4636
ltoes -55.7436
266
root -0.757933 18.9445 4.04868 17.7269 -4.27579 -2.61761
lowerback 41.1394 -2.93632 -10.9317
upperback 8.58472 -8.98485 -7.1385
thorax -9.60795 -3.82033 1.60308
lowerneck -19.8485 8.432 4.73453
upperneck 24.6979 10.6642 -1.55431
head 11.7043 4.95256 0.33252
rclavicle 9.22361e-014 5.56597e-014
rhumerus 34.3413 25.884 -52.6796
rradius 93.0492
rwrist 14.3835
rhand -28.0845 -49.817
rfingers 7.12502
rthumb -1.46753 280.208
lclavicle 9.22361e-014 5.56597e-014
lhumerus 20.2956 5.05098 111.131
lradius 72.161
lwrist 92.9645
lhand -28.1427 -17.911
lfingers 7.12502
lthumb -1.52377 12.0633
rfemur 0 0 0
rtibia 0
rfoot 0 0
rtoes 0
lfemur -29.5153 4.607 -10.7888
ltibia 23.4873
lfoot -12.7141 10.4715
ltoes -55.6309
267
root -0.755581 18.9465 4.0435 17.4881 -4.17168 -2.68228
lowerback 41.797 -3.01152 -11.0312
upperback 8.66728 -9.21235 -7.29167
thorax -9.7192 -3.90334 1.59995
lowerneck -20.2325 8.47415 4.81004
upperneck 24.5456 10.673 -1.5362
head 11.7239 4.96373 0.342451
rclavicle -9.54166e-015 -4.29375e-014
rhumerus 35.2905 26.1611 -52.0586
rradius 91.2563
rwrist 14.6219
rhand -26.9356 -49.3702
rfingers 7.12502
rthumb -0.357925 280.65
lclavicle -9.54166e-015 -4.29375e-014
lhumerus 20.8682 5.79848 111.182
lradius 71.7974
lwrist 93.311
lhand -29.0123 -18.5488
lfingers 7.12502
lthumb -2.3636 11.4178
rfemur 0 0 0
rtibia 0
rfoot 0 0
rtoes 0
lfemur -29.271 4.43224 -10.6654
ltibia 23.4738
lfoot -12.7449 10.545
ltoes -55.5408
268
root -0.754781 18.9492 4.04117 17.3782 -4.15688 -2.75498
lowerback 42.3206 -3.02566 -11.1521
upperback 8.76084 -9.35631 -7.44072
thorax -9.77344 -3.95414 1.57145
lowerneck -20.5014 8.45258 4.75016
upperneck 24.0693 10.5845 -1.35399
head 11.5743 4.95064 0.403284
rclavicle 7.31528e-014 1.59028e-014
rhumerus 35.8799 26.5624 -51.4026
rradius 90.6567
rwrist 15.0307
rhand -26.7324 -48.4608
rfingers 7.12502
rthumb -0.161591 281.559
lclavicle 7.31528e-014 1.59028e-014
lhumerus 21.0412 5.62496 110.749
lradius 72.0769
lwrist 92.975
lhand -28.4652 -18.8299
lfingers 7.12502
lthumb -1.8352 11.1419
rfemur 0 0 0
rtibia 0
rfoot 0 0
rtoes 0
lfemur -29.1104 4.38902 -10.5692
ltibia 23.4114
lfoot -12.7549 10.6216
ltoes -55.4915
269
root -0.753688 18.9507 4.04325 17.4946 -4.18236 -2.79236
lowerback 42.5382 -3.01173 -11.2472
upperback 8.81451 -9.41459 -7.54756
thorax -9.77925 -3.97386 1.5312
lowerneck -20.5476 8.4243 4.7083
upperneck 23.6233 10.5383 -1.33719
head 11.4081 4.93822 0.399488
rclavicle 9.54166e-015 -8.26944e-014
rhumerus 36.1867 27.0597 -50.8025
rradius 90.759
rwrist 15.2087
rhand -26.8339 -47.8578
rfingers 7.12502
rthumb -0.259709 282.163
lclavicle 9.54166e-015 -8.26944e-014
lhumerus 21.0565 5.11047 110.406
lradius 72.2788
lwrist 92.2465
lhand -27.4843 -18.4318
lfingers 7.12502
lthumb -0.887811 11.5461
rfemur 0 0 0
rtibia 0
rfoot 0 0
rtoes 0
lfemur -29.1727 4.35309 -10.5192
ltibia 23.3427
lfoot -12.7924 10.7295
ltoes -55.4765
270
root -0.752401 18.9511 4.0481 17.7532 -4.19087 -2.74969
lowerback 42.4843 -2.90275 -11.3952
upperback 8.83179 -9.33162 -7.54429
thorax -9.72134 -3.93813 1.56602
lowerneck -20.5343 8.30285 4.51371
upperneck 23.4511 10.3772 -1.15478
head 11.3116 4.87717 0.463193
rclavicle 1.27222e-014 2.06736e-014
rhumerus 36.2325 27.3793 -50.3412
rradius 90.9419
rwrist 15.3227
rhand -26.6349 -47.5033
rfingers 7.12502
rthumb -0.0674213 282.517
lclavicle 1.27222e-014 2.06736e-014
lhumerus 21.0078 4.51134 110.262
lradius 72.1369
lwrist 91.6195
lhand -26.8624 -17.9485
lfingers 7.12502
lthumb -0.287218 12.0311
rfemur 0 0 0
rtibia 0
rfoot 0 0
rtoes 0
lfemur -29.4134 4.25574 -10.549
ltibia 23.3016
lfoot -12.8112 10.8692
ltoes -55.4884
271
root -0.754425 18.951 4.0514 17.9739 -4.17751 -2.66734
lowerback 42.3681 -2.74335 -11.5417
upperback 8.82583 -9.17925 -7.52066
thorax -9.67188 -3.87147 1.59287
lowerneck -20.3944 8.13188 4.33305
upperneck 23.4246 10.1369 -0.917894
head 11.2425 4.78725 0.529531
rclavicle 9.22361e-014 3.97569e-014
rhumerus 36.1386 27.5396 -50.0684
rradius 90.9214
rwrist 15.3169
rhand -26.4234 -47.2363
rfingers 7.12502
rthumb 0.136817 282.784
lclavicle 9.22361e-014 3.97569e-014
lhumerus 20.8572 4.07888 110.243
lradius 71.8794
lwrist 91.6301
lhand -27.1494 -17.9384
lfingers 7.12502
lthumb -0.564374 12.0406
rfemur 0 0 0
rtibia 0
rfoot 0 0
rtoes 0
lfemur -29.6525 4.21711 -10.6312
ltibia 23.294
lfoot -12.7854 10.9141
ltoes -55.5645
